<svg xmlns="http://www.w3.org/2000/svg" xmlns:xlink="http://www.w3.org/1999/xlink" version="1.1" width="256" height="256" viewBox="0 0 256 256" xml:space="preserve">

<defs>
</defs>
<g style="stroke: none; stroke-width: 0; stroke-dasharray: none; stroke-linecap: butt; stroke-linejoin: miter; stroke-miterlimit: 10; fill: none; fill-rule: nonzero; opacity: 1;" transform="translate(1.4065934065934016 1.4065934065934016) scale(2.81 2.81)" >
	<path d="M 36.094 89.995 c -1.89 0 -3.78 -0.486 -5.465 -1.459 L 5.945 74.284 c -3.372 -1.947 -5.466 -5.574 -5.466 -9.467 V 36.314 c 0 -3.893 2.094 -7.52 5.466 -9.467 l 24.684 -14.251 c 3.371 -1.946 7.56 -1.946 10.931 0 l 24.684 14.251 c 3.371 1.946 5.466 5.574 5.466 9.467 v 28.503 c 0 3.893 -2.095 7.521 -5.466 9.467 L 41.56 88.536 C 39.875 89.509 37.984 89.995 36.094 89.995 z M 36.095 13.136 c -1.544 0 -3.088 0.397 -4.466 1.193 L 6.945 28.58 c -2.754 1.59 -4.466 4.554 -4.466 7.734 v 28.503 c 0 3.18 1.711 6.144 4.466 7.734 l 24.684 14.252 c 2.754 1.59 6.177 1.59 8.931 0 l 24.684 -14.252 c 2.755 -1.59 4.466 -4.554 4.466 -7.734 V 36.314 c 0 -3.181 -1.711 -6.145 -4.466 -7.734 L 40.56 14.329 C 39.183 13.533 37.639 13.136 36.095 13.136 z" style="stroke: none; stroke-width: 1; stroke-dasharray: none; stroke-linecap: butt; stroke-linejoin: miter; stroke-miterlimit: 10; fill: rgb(0,0,0); fill-rule: nonzero; opacity: 1;" transform=" matrix(1 0 0 1 0 0) " stroke-linecap="round" />
	<path d="M 24.175 62.547 c -0.339 0 -0.664 -0.174 -0.85 -0.473 L 11.543 43.092 v 18.455 c 0 0.553 -0.448 1 -1 1 s -1 -0.447 -1 -1 V 39.584 c 0 -0.447 0.296 -0.839 0.726 -0.962 c 0.43 -0.122 0.889 0.054 1.124 0.435 l 11.782 18.982 V 39.584 c 0 -0.552 0.448 -1 1 -1 s 1 0.448 1 1 v 21.962 c 0 0.446 -0.296 0.839 -0.726 0.962 C 24.358 62.534 24.267 62.547 24.175 62.547 z" style="stroke: none; stroke-width: 1; stroke-dasharray: none; stroke-linecap: butt; stroke-linejoin: miter; stroke-miterlimit: 10; fill: rgb(0,0,0); fill-rule: nonzero; opacity: 1;" transform=" matrix(1 0 0 1 0 0) " stroke-linecap="round" />
	<path d="M 32.692 62.547 c -0.552 0 -1 -0.447 -1 -1 V 39.584 c 0 -0.552 0.448 -1 1 -1 h 9.736 c 0.552 0 1 0.448 1 1 s -0.448 1 -1 1 h -8.736 v 20.962 C 33.692 62.1 33.244 62.547 32.692 62.547 z" style="stroke: none; stroke-width: 1; stroke-dasharray: none; stroke-linecap: butt; stroke-linejoin: miter; stroke-miterlimit: 10; fill: rgb(0,0,0); fill-rule: nonzero; opacity: 1;" transform=" matrix(1 0 0 1 0 0) " stroke-linecap="round" />
	<path d="M 40.433 51.566 h -7.741 c -0.552 0 -1 -0.447 -1 -1 s 0.448 -1 1 -1 h 7.741 c 0.552 0 1 0.447 1 1 S 40.985 51.566 40.433 51.566 z" style="stroke: none; stroke-width: 1; stroke-dasharray: none; stroke-linecap: butt; stroke-linejoin: miter; stroke-miterlimit: 10; fill: rgb(0,0,0); fill-rule: nonzero; opacity: 1;" transform=" matrix(1 0 0 1 0 0) " stroke-linecap="round" />
	<path d="M 61.646 40.584 H 49.164 c -0.553 0 -1 -0.448 -1 -1 s 0.447 -1 1 -1 h 12.481 c 0.553 0 1 0.448 1 1 S 62.198 40.584 61.646 40.584 z" style="stroke: none; stroke-width: 1; stroke-dasharray: none; stroke-linecap: butt; stroke-linejoin: miter; stroke-miterlimit: 10; fill: rgb(0,0,0); fill-rule: nonzero; opacity: 1;" transform=" matrix(1 0 0 1 0 0) " stroke-linecap="round" />
	<path d="M 55.404 62.547 c -0.553 0 -1 -0.447 -1 -1 V 39.584 c 0 -0.552 0.447 -1 1 -1 s 1 0.448 1 1 v 21.962 C 56.404 62.1 55.957 62.547 55.404 62.547 z" style="stroke: none; stroke-width: 1; stroke-dasharray: none; stroke-linecap: butt; stroke-linejoin: miter; stroke-miterlimit: 10; fill: rgb(0,0,0); fill-rule: nonzero; opacity: 1;" transform=" matrix(1 0 0 1 0 0) " stroke-linecap="round" />
	<path d="M 74.65 68.853 c -0.346 0 -0.682 -0.179 -0.867 -0.5 c -0.276 -0.479 -0.112 -1.09 0.366 -1.366 c 2.755 -1.59 4.466 -4.555 4.466 -7.735 V 30.749 c 0 -3.181 -1.711 -6.145 -4.466 -7.734 L 49.466 8.763 c -2.755 -1.591 -6.178 -1.59 -8.932 0 c -0.48 0.276 -1.09 0.112 -1.366 -0.366 c -0.276 -0.479 -0.112 -1.09 0.366 -1.366 c 3.371 -1.946 7.56 -1.947 10.932 0 l 24.684 14.251 c 3.371 1.946 5.466 5.574 5.466 9.467 v 28.502 c 0 3.894 -2.095 7.521 -5.466 9.468 C 74.992 68.81 74.82 68.853 74.65 68.853 z" style="stroke: none; stroke-width: 1; stroke-dasharray: none; stroke-linecap: butt; stroke-linejoin: miter; stroke-miterlimit: 10; fill: rgb(0,0,0); fill-rule: nonzero; opacity: 1;" transform=" matrix(1 0 0 1 0 0) " stroke-linecap="round" />
	<path d="M 83.557 63.286 c -0.346 0 -0.682 -0.179 -0.867 -0.5 c -0.276 -0.479 -0.112 -1.09 0.366 -1.366 c 2.754 -1.591 4.465 -4.554 4.465 -7.734 V 25.183 c 0 -3.181 -1.711 -6.145 -4.465 -7.734 L 58.371 3.197 c -2.753 -1.59 -6.175 -1.591 -8.932 0 c -0.479 0.275 -1.09 0.112 -1.366 -0.366 c -0.276 -0.479 -0.112 -1.09 0.366 -1.366 c 3.372 -1.947 7.562 -1.946 10.932 0 l 24.685 14.251 c 3.371 1.946 5.465 5.574 5.465 9.467 v 28.503 c 0 3.893 -2.094 7.52 -5.465 9.467 C 83.898 63.243 83.727 63.286 83.557 63.286 z" style="stroke: none; stroke-width: 1; stroke-dasharray: none; stroke-linecap: butt; stroke-linejoin: miter; stroke-miterlimit: 10; fill: rgb(0,0,0); fill-rule: nonzero; opacity: 1;" transform=" matrix(1 0 0 1 0 0) " stroke-linecap="round" />
</g>
</svg>